<svg width="33" height="29" viewBox="0 0 33 29" fill="none" xmlns="http://www.w3.org/2000/svg">
<g clip-path="url(#clip0_1_25)">
<path opacity="0.8" d="M28.1644 18.2311C28.0101 17.0451 27.1822 16.1205 26.1164 15.8449C21.9737 14.7709 20.9352 12.1321 20.76 9.20535C20.0254 9.05421 18.7184 8.89063 16.5 8.89063C14.2816 8.89063 12.9747 9.05421 12.24 9.20535C12.0648 12.1321 11.0263 14.7709 6.88364 15.8449C5.81783 16.1223 4.98994 17.0451 4.83562 18.2311L4.03666 24.3514C3.75534 26.5065 5.18606 28.45 7.17621 28.45H25.8238C27.8124 28.45 29.2447 26.5065 28.9634 24.3514L28.1644 18.2311ZM16.5 23.9905C14.2575 23.9905 12.4393 21.999 12.4393 19.5451C12.4393 17.0913 14.2575 15.0998 16.5 15.0998C18.7425 15.0998 20.5607 17.0913 20.5607 19.5451C20.5607 21.999 18.7409 23.9905 16.5 23.9905ZM32.4952 7.1125C32.4566 4.44531 26.3189 0.00177813 16.5 0C6.67948 0.00177813 0.541847 4.44531 0.504873 7.1125C0.4679 9.77969 0.538632 13.2506 4.58002 12.6727C9.30783 11.9952 9.01686 10.1691 9.01686 7.55881C9.01686 5.73801 12.8621 5.29881 16.5 5.29881C20.1379 5.29881 23.9816 5.73801 23.9832 7.55881C23.9832 10.1691 23.6922 11.9952 28.42 12.6727C32.4598 13.2506 32.5321 9.77969 32.4952 7.1125Z" fill="white"/>
</g>
<defs>
<clipPath id="clip0_1_25">
<rect width="32" height="28.45" fill="white" transform="translate(0.5)"/>
</clipPath>
</defs>
</svg>
