<svg width="32" height="26" viewBox="0 0 32 26" fill="none" xmlns="http://www.w3.org/2000/svg">
<path opacity="0.8" d="M27.6644 16.4822C27.5101 15.41 26.6822 14.5741 25.6164 14.3249C21.4737 13.3539 20.4352 10.9683 20.26 8.3223C19.5254 8.18565 18.2184 8.03776 16 8.03776C13.7816 8.03776 12.4747 8.18565 11.74 8.3223C11.5648 10.9683 10.5263 13.3539 6.38364 14.3249C5.31783 14.5757 4.48994 15.41 4.33562 16.4822L3.53666 22.0154C3.25534 23.9638 4.68606 25.7208 6.67621 25.7208H25.3238C27.3124 25.7208 28.7447 23.9638 28.4634 22.0154L27.6644 16.4822ZM16 21.6891C13.7575 21.6891 11.9393 19.8886 11.9393 17.6702C11.9393 15.4518 13.7575 13.6513 16 13.6513C18.2425 13.6513 20.0607 15.4518 20.0607 17.6702C20.0607 19.8886 18.2409 21.6891 16 21.6891ZM31.9952 6.43021C31.9566 4.01888 25.8189 0.00160755 16 0C6.17948 0.00160755 0.0418471 4.01888 0.00487344 6.43021C-0.0321003 8.84153 0.0386321 11.9795 4.08002 11.457C8.80783 10.8445 8.51686 9.19359 8.51686 6.8337C8.51686 5.18757 12.3621 4.7905 16 4.7905C19.6379 4.7905 23.4816 5.18757 23.4832 6.8337C23.4832 9.19359 23.1922 10.8445 27.92 11.457C31.9598 11.9795 32.0321 8.84153 31.9952 6.43021Z" fill="white"/>
</svg>
